<svg xmlns="http://www.w3.org/2000/svg" viewBox="0 0 165 46.3"><defs><style>.cls-1{fill:#fff;}.cls-2{fill:none;}</style></defs><title>Logo branco Apollotec</title><g id="Layer_2" data-name="Layer 2"><g id="Layer_1-2" data-name="Layer 1"><polygon class="cls-1" points="26.26 18.15 23.1 19.97 20.92 16.2 16.56 23.75 10.24 27.39 20.92 8.9 26.26 18.15"></polygon><polygon class="cls-1" points="34.34 32.14 30.13 32.14 26.29 25.5 14.8 32.14 7.5 32.14 27.63 20.52 29.45 23.68 34.34 32.14"></polygon><path class="cls-1" d="M37.5,14.83h3.62v2.86h.17a4.76,4.76,0,0,1,1.85-2.42,5.36,5.36,0,0,1,3-.84,6,6,0,0,1,5.1,2.38,10.84,10.84,0,0,1,1.8,6.67,10.87,10.87,0,0,1-1.8,6.68,6,6,0,0,1-5.1,2.38,5.22,5.22,0,0,1-3-.87,4.77,4.77,0,0,1-1.85-2.39h-.17V38.8H37.5Zm7.55,14.58a3.93,3.93,0,0,0,3-1.22A4.5,4.5,0,0,0,49.22,25V22a4.5,4.5,0,0,0-1.14-3.21,3.93,3.93,0,0,0-3-1.21,4.65,4.65,0,0,0-2.79.81,2.53,2.53,0,0,0-1.14,2.15v5.93a2.51,2.51,0,0,0,1.14,2.14A4.59,4.59,0,0,0,45.05,29.41Z"></path><path class="cls-1" d="M64,32.54a8.3,8.3,0,0,1-3.28-.63,6.74,6.74,0,0,1-2.51-1.82,8.37,8.37,0,0,1-1.6-2.86A11.62,11.62,0,0,1,56,23.48a11.6,11.6,0,0,1,.57-3.74,8.41,8.41,0,0,1,1.6-2.87,6.83,6.83,0,0,1,2.51-1.81,8.85,8.85,0,0,1,6.56,0,6.83,6.83,0,0,1,2.51,1.81,8.41,8.41,0,0,1,1.6,2.87A11.6,11.6,0,0,1,72,23.48a11.62,11.62,0,0,1-.57,3.75,8.37,8.37,0,0,1-1.6,2.86,6.74,6.74,0,0,1-2.51,1.82A8.3,8.3,0,0,1,64,32.54Zm0-3a4.06,4.06,0,0,0,3-1.14,4.71,4.71,0,0,0,1.13-3.43V22A4.69,4.69,0,0,0,67,18.6a4.52,4.52,0,0,0-6,0A4.69,4.69,0,0,0,59.87,22v2.91A4.71,4.71,0,0,0,61,28.37,4.06,4.06,0,0,0,64,29.51Z"></path><path class="cls-1" d="M79.62,12.86V29.17H82v3H79.68a3.67,3.67,0,0,1-2.78-.95A3.64,3.64,0,0,1,76,28.54V15Z"></path><path class="cls-1" d="M88.91,29.17V7.5L85.28,9.6V28.54a3.64,3.64,0,0,0,.91,2.65,3.67,3.67,0,0,0,2.78.95h2.34v-3Z"></path><path class="cls-1" d="M101.56,32.54a8.3,8.3,0,0,1-3.28-.63,6.74,6.74,0,0,1-2.51-1.82,8.2,8.2,0,0,1-1.6-2.86,11.62,11.62,0,0,1-.57-3.75,11.6,11.6,0,0,1,.57-3.74,8.25,8.25,0,0,1,1.6-2.87,6.83,6.83,0,0,1,2.51-1.81,8.85,8.85,0,0,1,6.56,0,6.83,6.83,0,0,1,2.51,1.81,8.41,8.41,0,0,1,1.6,2.87,11.6,11.6,0,0,1,.57,3.74,11.62,11.62,0,0,1-.57,3.75,8.37,8.37,0,0,1-1.6,2.86,6.74,6.74,0,0,1-2.51,1.82A8.3,8.3,0,0,1,101.56,32.54Zm0-3a4.06,4.06,0,0,0,3-1.14,4.71,4.71,0,0,0,1.13-3.43V22a4.69,4.69,0,0,0-1.13-3.43,4.52,4.52,0,0,0-6,0A4.69,4.69,0,0,0,97.43,22v2.91a4.71,4.71,0,0,0,1.13,3.43A4.06,4.06,0,0,0,101.56,29.51Z"></path><path class="cls-1" d="M118.24,32.14a3.86,3.86,0,0,1-2.86-1,3.78,3.78,0,0,1-1-2.78V17.79h-2.69v-3h1.46a1.63,1.63,0,0,0,1.25-.4,2,2,0,0,0,.35-1.3v-3H118v4.73h3.63v3H118V29.18h3.37v3Z"></path><path class="cls-1" d="M132.26,32.54a8.38,8.38,0,0,1-3.33-.63,6.87,6.87,0,0,1-2.5-1.82,8.17,8.17,0,0,1-1.58-2.86,12.21,12.21,0,0,1-.55-3.75,12.19,12.19,0,0,1,.55-3.74,8.22,8.22,0,0,1,1.58-2.87,7,7,0,0,1,2.5-1.81,8.38,8.38,0,0,1,3.33-.63,8,8,0,0,1,3.35.66A6.71,6.71,0,0,1,138,16.94a8,8,0,0,1,1.45,2.75,11.37,11.37,0,0,1,.48,3.36v1.37H128.06V25a4.61,4.61,0,0,0,1.19,3.26,4.36,4.36,0,0,0,3.38,1.27,5,5,0,0,0,2.69-.69,6.14,6.14,0,0,0,1.87-1.89l2.13,2.1a6.9,6.9,0,0,1-2.8,2.56A9.16,9.16,0,0,1,132.26,32.54Zm0-15.28a4.34,4.34,0,0,0-1.71.33,3.75,3.75,0,0,0-1.34.93,4.35,4.35,0,0,0-.85,1.43,5.4,5.4,0,0,0-.3,1.83V22h8.06v-.34a4.78,4.78,0,0,0-1-3.21A3.51,3.51,0,0,0,132.26,17.26Z"></path><path class="cls-1" d="M150.67,32.54a8.38,8.38,0,0,1-3.33-.63,6.65,6.65,0,0,1-2.46-1.82,8.08,8.08,0,0,1-1.53-2.86,12.22,12.22,0,0,1-.53-3.75,12.2,12.2,0,0,1,.53-3.74,8.13,8.13,0,0,1,1.53-2.87,6.73,6.73,0,0,1,2.46-1.81,8.38,8.38,0,0,1,3.33-.63,7.25,7.25,0,0,1,4.27,1.16,6.72,6.72,0,0,1,2.43,3.1l-3,1.4a3.75,3.75,0,0,0-1.28-1.92,3.81,3.81,0,0,0-2.42-.71,3.66,3.66,0,0,0-3,1.24,5,5,0,0,0-1,3.24V25a4.92,4.92,0,0,0,1,3.23,3.66,3.66,0,0,0,3,1.25,3.88,3.88,0,0,0,2.55-.78,5.57,5.57,0,0,0,1.52-2.08l2.76,1.46a6.94,6.94,0,0,1-2.6,3.29A7.5,7.5,0,0,1,150.67,32.54Z"></path><rect class="cls-2" x="7.5" y="7.5" width="150" height="31.3"></rect><rect class="cls-2" width="165" height="46.3"></rect><rect class="cls-2" width="7.5" height="7.5"></rect></g></g></svg>